<svg width="48" height="48" viewBox="0 0 48 48" fill="none" xmlns="http://www.w3.org/2000/svg">
<line x1="10.5" y1="42.5" x2="10.5" y2="45.5" stroke="#152C5B" stroke-width="3" stroke-linecap="round"/>
<line x1="37.5" y1="5" x2="37.5" y2="24" stroke="#FF498B" stroke-width="3"/>
<path d="M1.5 26C1.5 24.6193 2.61929 23.5 4 23.5H44C45.3807 23.5 46.5 24.6193 46.5 26V28C46.5 29.3807 45.3807 30.5 44 30.5H4C2.61929 30.5 1.5 29.3807 1.5 28V26Z" fill="white" stroke="#152C5B" stroke-width="3"/>
<line x1="38.5" y1="42.5" x2="38.5" y2="45.5" stroke="#152C5B" stroke-width="3" stroke-linecap="round"/>
<path d="M28.0675 4.25364C27.4186 4.76864 27.3101 5.71216 27.8251 6.36106C28.3401 7.00996 29.2836 7.1185 29.9325 6.6035L28.0675 4.25364ZM38.9746 4.85974L35.5469 1.93011L33.5978 4.21063L37.0254 7.14026L38.9746 4.85974ZM31.0971 1.84921L28.0675 4.25364L29.9325 6.6035L32.9621 4.19908L31.0971 1.84921ZM35.5469 1.93011C34.274 0.842133 32.4087 0.808221 31.0971 1.84921L32.9621 4.19908C33.1494 4.05036 33.4159 4.05521 33.5978 4.21063L35.5469 1.93011Z" fill="#FF498B"/>
<path d="M5.5 30.5H42.5V38C42.5 39.933 40.933 41.5 39 41.5H9C7.067 41.5 5.5 39.933 5.5 38V30.5Z" fill="white" stroke="#152C5B" stroke-width="3"/>
</svg>
