<svg width="48" height="48" viewBox="0 0 48 48" fill="none" xmlns="http://www.w3.org/2000/svg">
<rect width="48" height="48" fill="white"/>
<mask id="path-1-inside-1" fill="white">
<path fill-rule="evenodd" clip-rule="evenodd" d="M16.4879 8C15.7119 8 15.0059 8.44886 14.6768 9.15155L12.4054 14H10C4.47715 14 0 18.4772 0 24V33C0 38.5228 4.47715 43 10 43H38C43.5228 43 48 38.5228 48 33V24C48 18.4772 43.5229 14 38 14H35.7117L33.6551 9.21083C33.3396 8.47617 32.6169 8 31.8174 8H16.4879Z"/>
</mask>
<path d="M14.6768 9.15155L11.9601 7.87888L11.9601 7.87888L14.6768 9.15155ZM12.4054 14V17H14.3129L15.1221 15.2727L12.4054 14ZM35.7117 14L32.9551 15.1838L33.7351 17H35.7117V14ZM33.6551 9.21083L36.4117 8.02707V8.02707L33.6551 9.21083ZM17.3934 10.4242C17.2288 10.7756 16.8759 11 16.4879 11V5C14.5479 5 12.7831 6.12214 11.9601 7.87888L17.3934 10.4242ZM15.1221 15.2727L17.3934 10.4242L11.9601 7.87888L9.68873 12.7273L15.1221 15.2727ZM10 17H12.4054V11H10V17ZM3 24C3 20.134 6.13401 17 10 17V11C2.8203 11 -3 16.8203 -3 24H3ZM3 33V24H-3V33H3ZM10 40C6.13401 40 3 36.866 3 33H-3C-3 40.1797 2.8203 46 10 46V40ZM38 40H10V46H38V40ZM45 33C45 36.866 41.866 40 38 40V46C45.1797 46 51 40.1797 51 33H45ZM45 24V33H51V24H45ZM38 17C41.866 17 45 20.134 45 24H51C51 16.8203 45.1797 11 38 11V17ZM35.7117 17H38V11H35.7117V17ZM30.8985 10.3946L32.9551 15.1838L38.4683 12.8162L36.4117 8.02707L30.8985 10.3946ZM31.8174 11C31.4176 11 31.0563 10.7619 30.8985 10.3946L36.4117 8.02707C35.623 6.19044 33.8162 5 31.8174 5V11ZM16.4879 11H31.8174V5H16.4879V11Z" fill="#152C5B" mask="url(#path-1-inside-1)"/>
<circle cx="24" cy="27" r="6.5" fill="white" stroke="#FF498B" stroke-width="3"/>
<line x1="35.5" y1="21.5" x2="40.5" y2="21.5" stroke="#FF498B" stroke-width="3" stroke-linecap="round"/>
</svg>
