<svg width="48" height="48" viewBox="0 0 48 48" fill="none" xmlns="http://www.w3.org/2000/svg">
<path d="M39.3787 28.5909C39.7051 27.8294 39.3523 26.9476 38.5909 26.6213C37.8294 26.2949 36.9476 26.6477 36.6213 27.4091L39.3787 28.5909ZM36.6213 42.5909C36.9476 43.3523 37.8294 43.7051 38.5909 43.3787C39.3523 43.0524 39.7051 42.1706 39.3787 41.4091L36.6213 42.5909ZM36.5 38.5L37.8787 37.9091L36.5 38.5ZM34.4654 37.5605L35.1213 39.0909L37.8787 37.9091L37.2228 36.3787L34.4654 37.5605ZM35.1213 39.0909L36.6213 42.5909L39.3787 41.4091L37.8787 37.9091L35.1213 39.0909ZM36.6213 27.4091L35.1213 30.9091L37.8787 32.0909L39.3787 28.5909L36.6213 27.4091ZM35.1213 30.9091L34.4654 32.4395L37.2228 33.6213L37.8787 32.0909L35.1213 30.9091ZM37.2228 36.3787C36.8455 35.4983 36.8455 34.5017 37.2228 33.6213L34.4654 32.4395C33.7647 34.0746 33.7647 35.9254 34.4654 37.5605L37.2228 36.3787Z" fill="#152C5B"/>
<path d="M7.62128 28.5909C7.29495 27.8294 7.64768 26.9476 8.40912 26.6213C9.17057 26.2949 10.0524 26.6477 10.3787 27.4091L7.62128 28.5909ZM10.3787 42.5909C10.0524 43.3523 9.17057 43.7051 8.40912 43.3787C7.64768 43.0524 7.29495 42.1706 7.62128 41.4091L10.3787 42.5909ZM10.5 38.5L9.12128 37.9091L10.5 38.5ZM12.5346 37.5605L11.8787 39.0909L9.12128 37.9091L9.77717 36.3787L12.5346 37.5605ZM11.8787 39.0909L10.3787 42.5909L7.62128 41.4091L9.12128 37.9091L11.8787 39.0909ZM10.3787 27.4091L11.8787 30.9091L9.12128 32.0909L7.62128 28.5909L10.3787 27.4091ZM11.8787 30.9091L12.5346 32.4395L9.77717 33.6213L9.12128 32.0909L11.8787 30.9091ZM9.77717 36.3787C10.1545 35.4983 10.1545 34.5017 9.77717 33.6213L12.5346 32.4395C13.2353 34.0746 13.2353 35.9254 12.5346 37.5605L9.77717 36.3787Z" fill="#152C5B"/>
<path d="M32.3787 28.5909C32.7051 27.8294 32.3523 26.9476 31.5909 26.6213C30.8294 26.2949 29.9476 26.6477 29.6213 27.4091L32.3787 28.5909ZM29.6213 42.5909C29.9476 43.3523 30.8294 43.7051 31.5909 43.3787C32.3523 43.0524 32.7051 42.1706 32.3787 41.4091L29.6213 42.5909ZM29.5 38.5L30.8787 37.9091L29.5 38.5ZM27.4654 37.5605L28.1213 39.0909L30.8787 37.9091L30.2228 36.3787L27.4654 37.5605ZM28.1213 39.0909L29.6213 42.5909L32.3787 41.4091L30.8787 37.9091L28.1213 39.0909ZM29.6213 27.4091L28.1213 30.9091L30.8787 32.0909L32.3787 28.5909L29.6213 27.4091ZM28.1213 30.9091L27.4654 32.4395L30.2228 33.6213L30.8787 32.0909L28.1213 30.9091ZM30.2228 36.3787C29.8455 35.4983 29.8455 34.5017 30.2228 33.6213L27.4654 32.4395C26.7647 34.0746 26.7647 35.9254 27.4654 37.5605L30.2228 36.3787Z" fill="#152C5B"/>
<path d="M14.6213 28.5909C14.2949 27.8294 14.6477 26.9476 15.4091 26.6213C16.1706 26.2949 17.0524 26.6477 17.3787 27.4091L14.6213 28.5909ZM17.3787 42.5909C17.0524 43.3523 16.1706 43.7051 15.4091 43.3787C14.6477 43.0524 14.2949 42.1706 14.6213 41.4091L17.3787 42.5909ZM17.5 38.5L16.1213 37.9091L17.5 38.5ZM19.5346 37.5605L18.8787 39.0909L16.1213 37.9091L16.7772 36.3787L19.5346 37.5605ZM18.8787 39.0909L17.3787 42.5909L14.6213 41.4091L16.1213 37.9091L18.8787 39.0909ZM17.3787 27.4091L18.8787 30.9091L16.1213 32.0909L14.6213 28.5909L17.3787 27.4091ZM18.8787 30.9091L19.5346 32.4395L16.7772 33.6213L16.1213 32.0909L18.8787 30.9091ZM16.7772 36.3787C17.1545 35.4983 17.1545 34.5017 16.7772 33.6213L19.5346 32.4395C20.2353 34.0746 20.2353 35.9254 19.5346 37.5605L16.7772 36.3787Z" fill="#152C5B"/>
<path d="M1.5 22C1.5 23.3807 2.61929 24.5 4 24.5H44C45.3807 24.5 46.5 23.3807 46.5 22V20C46.5 18.6193 45.3807 17.5 44 17.5H4C2.61929 17.5 1.5 18.6193 1.5 20V22Z" fill="white" stroke="#152C5B" stroke-width="3"/>
<path d="M1.5 17.5H46.5V10C46.5 8.067 44.933 6.5 43 6.5H5C3.067 6.5 1.5 8.067 1.5 10V17.5Z" fill="white" stroke="#152C5B" stroke-width="3"/>
<line x1="20.5" y1="12.5" x2="26.5" y2="12.5" stroke="#FF498B" stroke-width="3" stroke-linecap="round"/>
</svg>
