<svg width="48" height="48" viewBox="0 0 48 48" fill="none" xmlns="http://www.w3.org/2000/svg">
<path d="M8 44.5C6.61929 44.5 5.5 43.3807 5.5 42L5.5 24C5.5 22.6193 6.61929 21.5 8 21.5C9.38071 21.5 10.5 22.6193 10.5 24V42C10.5 43.3807 9.38071 44.5 8 44.5Z" fill="white" stroke="#152C5B" stroke-width="3"/>
<path d="M36 44.5C34.6193 44.5 33.5 43.3807 33.5 42V24C33.5 22.6193 34.6193 21.5 36 21.5C37.3807 21.5 38.5 22.6193 38.5 24V42C38.5 43.3807 37.3807 44.5 36 44.5Z" fill="white" stroke="#152C5B" stroke-width="3"/>
<path d="M3.89872 21.8523C4.32794 21.0217 5.18476 20.5 6.11972 20.5H37.8803C38.8152 20.5 39.6721 21.0217 40.1013 21.8523L41.6515 24.8523C42.5114 26.5163 41.3035 28.5 39.4305 28.5H4.56948C2.69646 28.5 1.48863 26.5163 2.34848 24.8523L3.89872 21.8523Z" fill="white" stroke="#152C5B" stroke-width="3"/>
<line x1="16.5" y1="12.5" x2="16.5" y2="18.5" stroke="#152C5B" stroke-width="3" stroke-linecap="round"/>
<line x1="27.5" y1="12.5" x2="27.5" y2="18.5" stroke="#152C5B" stroke-width="3" stroke-linecap="round"/>
<path d="M16.5 11.5C14.8431 11.5 13.5 10.1569 13.5 8.5V4.5H19.5V8.5C19.5 10.1569 18.1569 11.5 16.5 11.5Z" fill="white" stroke="#FF498B" stroke-width="3"/>
<path d="M27.5 11.5C25.8431 11.5 24.5 10.1569 24.5 8.5V4.5H30.5V8.5C30.5 10.1569 29.1569 11.5 27.5 11.5Z" fill="white" stroke="#FF498B" stroke-width="3"/>
</svg>
