<svg width="48" height="48" viewBox="0 0 48 48" fill="none" xmlns="http://www.w3.org/2000/svg">
<path d="M6.5 10C6.5 5.30558 10.3056 1.5 15 1.5H33C37.6944 1.5 41.5 5.30558 41.5 10V21.5H6.5V10Z" fill="white" stroke="#152C5B" stroke-width="3"/>
<path d="M6.5 10C6.5 5.30558 10.3056 1.5 15 1.5H33C37.6944 1.5 41.5 5.30558 41.5 10V21.5H6.5V10Z" fill="white" stroke="#152C5B" stroke-width="3"/>
<line x1="6.5" y1="37.5" x2="6.5" y2="44.5" stroke="#152C5B" stroke-width="3" stroke-linecap="round"/>
<line x1="7.5" y1="41.5" x2="40.5" y2="41.5" stroke="#152C5B" stroke-width="3" stroke-linecap="round"/>
<line x1="41.5" y1="37.5" x2="41.5" y2="44.5" stroke="#152C5B" stroke-width="3" stroke-linecap="round"/>
<mask id="path-6-inside-1" fill="white">
<rect x="26" y="11" width="11" height="10" rx="2"/>
</mask>
<rect x="26" y="11" width="11" height="10" rx="2" fill="white" stroke="#FF498B" stroke-width="6" mask="url(#path-6-inside-1)"/>
<mask id="path-7-inside-2" fill="white">
<rect x="11" y="11" width="11" height="10" rx="2"/>
</mask>
<rect x="11" y="11" width="11" height="10" rx="2" fill="white" stroke="#FF498B" stroke-width="6" mask="url(#path-7-inside-2)"/>
<mask id="path-8-inside-3" fill="white">
<rect y="20" width="48" height="18" rx="2"/>
</mask>
<rect y="20" width="48" height="18" rx="2" fill="white" stroke="#152C5B" stroke-width="6" mask="url(#path-8-inside-3)"/>
</svg>
